{"title":"Chennai Express - One Two Three Four Xvid AC3 5.1 waquaschaser00","uid":8814676,"size":80172038,"categoryP":"video","categoryS":"music_videos","magnet":"?xt=urn:btih:8a47448c00c66016ca4868aac6e4359e1a68dab3&amp;dn=Chennai+Express+-+One+Two+Three+Four+Xvid+AC3+5.1+waquaschaser00&amp;tr=udp%3A%2F%2Ftracker.openbittorrent.com%3A80&amp;tr=udp%3A%2F%2Fopen.demonii.com%3A1337&amp;tr=udp%3A%2F%2Ftracker.coppersurfer.tk%3A6969&amp;tr=udp%3A%2F%2Fexodus.desync.com%3A6969","seeders":1,"leechers":0,"uploader":null,"files":1,"time":1376549470,"description":"ID : 0\nFormat : MPEG-4 Visual\nFormat profile : Advanced Simple@L5\nFormat settings, BVOP : 2\nFormat settings, QPel : No\nFormat settings, GMC : No warppoints\nFormat settings, Matrix : Default (MPEG)\nCodec ID : XVID\nCodec ID/Hint : XviD\nDuration : 3mn 53s\nBit rate : 2 276 Kbps\nWidth : 704 pixels\nHeight : 272 pixels\nDisplay aspect ratio : 2.588\nFrame rate : 25.000 fps\nColor space : YUV\nChroma subsampling : 4:2:0\nBit depth : 8 bits\nScan type : Progressive\nCompression mode : Lossy\nBits/(Pixel*Frame) : 0.475\nStream size : 63.4 MiB (83%)\nWriting library : XviD 1.2.1 (UTC 2008-12-04)\n\nAudio\nID : 1\nFormat : AC-3\nFormat/Info : Audio Coding 3\nMode extension : CM (complete main)\nFormat settings, Endianness : Big\nCodec ID : 2000\nDuration : 3mn 53s\nSource duration : 3mn 53s\nBit rate mode : Constant\nBit rate : 448 Kbps\nChannel(s) : 6 channels\nChannel positions : Front: L C R, Side: L R, LFE\nSampling rate : 48.0 KHz\nBit depth : 16 bits\nCompression mode : Lossy\nDelay relative to video : 32ms\nStream size : 12.5 MiB (16%)\nAlignment : Split accross interleaves\nInterleave, duration : 32 ms (0.80 video frame)","torrent":{"xt":"urn:btih:8a47448c00c66016ca4868aac6e4359e1a68dab3","amp;dn":"Chennai+Express+-+One+Two+Three+Four+Xvid+AC3+5.1+waquaschaser00","amp;tr":["udp%3A%2F%2Ftracker.openbittorrent.com%3A80","udp%3A%2F%2Fopen.demonii.com%3A1337","udp%3A%2F%2Ftracker.coppersurfer.tk%3A6969","udp%3A%2F%2Fexodus.desync.com%3A6969"],"infoHash":"8a47448c00c66016ca4868aac6e4359e1a68dab3","infoHashBuffer":{"type":"Buffer","data":[138,71,68,140,0,198,96,22,202,72,104,170,198,228,53,158,26,104,218,179]},"announce":[],"urlList":[]}}